<svg xmlns="http://www.w3.org/2000/svg" width="100%" height="100%" viewBox="0 0 1200 400"><defs><linearGradient id="bgGradient" x1="0%" x2="100%" y1="0%" y2="100%"><stop offset="0%" stop-color="#0f172a"/><stop offset="50%" stop-color="#1e1b4b"/><stop offset="100%" stop-color="#0f172a"/></linearGradient><linearGradient id="titleGradient" x1="0%" x2="100%" y1="0%" y2="0%"><stop offset="0%" stop-color="#38bdf8"/><stop offset="50%" stop-color="#818cf8"/><stop offset="100%" stop-color="#c084fc"/></linearGradient><linearGradient id="subGradient" x1="0%" x2="100%" y1="0%" y2="0%"><stop offset="0%" stop-color="#94a3b8"/><stop offset="100%" stop-color="#cbd5e1"/></linearGradient><linearGradient id="pillGrad1" x1="0%" x2="100%" y1="0%" y2="100%"><stop offset="0%" stop-color="#0284c7" stop-opacity=".4"/><stop offset="100%" stop-color="#0369a1" stop-opacity=".1"/></linearGradient><linearGradient id="pillGrad2" x1="0%" x2="100%" y1="0%" y2="100%"><stop offset="0%" stop-color="#7c3aed" stop-opacity=".4"/><stop offset="100%" stop-color="#5b21b6" stop-opacity=".1"/></linearGradient><filter id="glow" width="140%" height="140%" x="-20%" y="-20%"><feGaussianBlur result="blur" stdDeviation="8"/><feComposite in="SourceGraphic" in2="blur" operator="over"/></filter><filter id="softGlow" width="120%" height="120%" x="-10%" y="-10%"><feGaussianBlur result="blur" stdDeviation="4"/><feComposite in="SourceGraphic" in2="blur" operator="over"/></filter></defs><style>@keyframes gridPulse{0%{opacity:.15}50%{opacity:.3}}@keyframes floatPill1{0%{transform:translateY(0) rotate(0deg)}50%{transform:translateY(-12px) rotate(1deg)}}@keyframes floatPill2{0%{transform:translateY(0) rotate(0deg)}50%{transform:translateY(14px) rotate(-1.5deg)}}@keyframes pulseNode{0%{transform:scale(1);opacity:.6}50%{transform:scale(1.4);opacity:1}}@keyframes waveMove{0%{stroke-dashoffset:0}}.grid-bg{animation:gridPulse 6s ease-in-out infinite}.pill-1{animation:floatPill1 7s ease-in-out infinite}.pill-2{animation:floatPill2 9s ease-in-out infinite}.node{animation:pulseNode 3s ease-in-out infinite;transform-box:fill-box;transform-origin:center}.node-delay-1{animation-delay:.7s}.node-delay-2{animation-delay:1.4s}.node-delay-3{animation-delay:2.1s}.wave-line{stroke-dasharray:10 15;animation:waveMove 20s linear infinite}.banner-title{font-weight:800;font-size:44px;letter-spacing:-.5px}.badge-text,.banner-subtitle,.banner-title{font-family:system-ui,-apple-system,&apos;Segoe UI&apos;,Roboto,Helvetica,Arial,sans-serif}.banner-subtitle{font-weight:500;font-size:19px;letter-spacing:.2px}.badge-text{font-weight:600;font-size:13px;fill:#e2e8f0}</style><rect width="1200" height="400" fill="url(#bgGradient)" rx="16"/><g stroke="#38bdf8" stroke-width="1" class="grid-bg" opacity=".2"><path d="M0 50 H1200 M0 100 H1200 M0 150 H1200 M0 200 H1200 M0 250 H1200 M0 300 H1200 M0 350 H1200"/><path d="M100 0 V400 M200 0 V400 M300 0 V400 M400 0 V400 M500 0 V400 M600 0 V400 M700 0 V400 M800 0 V400 M900 0 V400 M1000 0 V400 M1100 0 V400"/></g><g opacity=".3"><path fill="none" stroke="#38bdf8" stroke-width="1.5" d="M 150 90 L 300 60 L 450 100 L 950 80 L 1050 130" class="wave-line"/><path fill="none" stroke="#818cf8" stroke-width="1.5" d="M 100 320 L 250 340 L 850 330 L 1080 300" class="wave-line"/><circle cx="150" cy="90" r="5" fill="#38bdf8" class="node"/><circle cx="300" cy="60" r="4" fill="#818cf8" class="node node-delay-1"/><circle cx="450" cy="100" r="6" fill="#c084fc" class="node node-delay-2"/><circle cx="950" cy="80" r="5" fill="#38bdf8" class="node node-delay-3"/><circle cx="1050" cy="130" r="4" fill="#818cf8" class="node"/><circle cx="100" cy="320" r="5" fill="#818cf8" class="node node-delay-1"/><circle cx="250" cy="340" r="6" fill="#38bdf8" class="node node-delay-2"/><circle cx="850" cy="330" r="4" fill="#c084fc" class="node node-delay-3"/><circle cx="1080" cy="300" r="5" fill="#38bdf8" class="node"/></g><g class="pill-1"><rect width="230" height="38" x="830" y="45" fill="url(#pillGrad1)" stroke="#38bdf8" stroke-opacity=".5" stroke-width="1.5" rx="19"/><circle cx="852" cy="64" r="6" fill="#38bdf8" class="node"/><text x="868" y="69" class="badge-text">Hybrid Retrieval &amp; BM25</text></g><g class="pill-2"><rect width="220" height="38" x="140" y="45" fill="url(#pillGrad2)" stroke="#818cf8" stroke-opacity=".5" stroke-width="1.5" rx="19"/><circle cx="162" cy="64" r="6" fill="#a855f7" class="node node-delay-1"/><text x="178" y="69" class="badge-text">RAG &amp; Vector Search</text></g><g class="pill-1"><rect width="240" height="38" x="140" y="315" fill="url(#pillGrad1)" stroke="#38bdf8" stroke-opacity=".5" stroke-width="1.5" rx="19"/><circle cx="162" cy="334" r="6" fill="#38bdf8" class="node node-delay-2"/><text x="178" y="339" class="badge-text">Enterprise Data Connectors</text></g><g class="pill-2"><rect width="240" height="38" x="820" y="315" fill="url(#pillGrad2)" stroke="#c084fc" stroke-opacity=".5" stroke-width="1.5" rx="19"/><circle cx="842" cy="334" r="6" fill="#c084fc" class="node node-delay-3"/><text x="858" y="339" class="badge-text">RBAC &amp; Knowledge Graphs</text></g><rect width="960" height="170" x="120" y="115" fill="#0f172a" fill-opacity=".8" stroke="#334155" stroke-width="1" filter="url(#glow)" rx="20"/><g filter="url(#softGlow)" transform="translate(600, 145)"><circle cx="0" cy="0" r="28" fill="none" stroke="#38bdf8" stroke-width="2" class="node" opacity=".4"/><circle cx="0" cy="0" r="20" fill="#1e1b4b" stroke="#818cf8" stroke-width="2.5"/><path fill="none" stroke="#38bdf8" stroke-width="2.5" d="M-6 -6 L-1 -1 M2 2 A 6 6 0 1 0 -6 -6 A 6 6 0 0 0 2 2 Z" transform="scale(1.8)"/></g><text x="600" y="215" fill="url(#titleGradient)" class="banner-title" filter="url(#softGlow)" text-anchor="middle">Awesome Enterprise Intelligent Search</text><text x="600" y="252" fill="url(#subGradient)" class="banner-subtitle" text-anchor="middle">Curated Commercial Platforms &amp; Open-Source Engines for Semantic Discovery &amp; RAG</text></svg>